# xmcd CD database file
#
# Track frame offsets:
#	150
#	14030
#	25142
#	41727
#	50362
#	65810
#	80675
#	93647
#	107197
#	117357
#	131317
#	144837
#	159412
#	173317
#	190310
#	204605
#	216720
#	233377
#
# Disc length: 3394 seconds
#
# Revision: 1
# Processed by: cddbd v1.5.1PL2 Copyright (c) Steve Scherf et al.
# Submitted via: CDex 1.51
#
DISCID=fd0d4012
DTITLE=Various Artist - 2.up country [CD2]
DYEAR=1900
DGENRE=Country
TTITLE0=Kathy Matea - Ball And Chain
TTITLE1=Katht Matea - Street Talk
TTITLE2=Kathy Matea - Someone Is Falling In Love
TTITLE3=Kathy Matea - Put Yourself In My Place
TTITLE4=Kathy Matea - Heart Of The Country
TTITLE5=Sweethearts Of The Rodeo - Chains Of Gold
TTITLE6=Sweethearts Of The Rodeo - Hey Doll Baby
TTITLE7=Forester Sisters - Dixie Man
TTITLE8=Forester Sisters - Just In Case
TTITLE9=Forester Sisters - I Fell In Love Again Last Night
TTITLE10=Lorrie Morgan - Stuck On You
TTITLE11=Lorrie Morgan - Please Mr. Please
TTITLE12=Lorrie Morgan - Love Is Fair
TTITLE13=Lorrie Morgan - You're Gettin' To Me Again
TTITLE14=Patty Loveless - It's What You Don't Do
TTITLE15=Patty Loveless - Lonely Days, Lonely Nights
TTITLE16=Tanya Tucker - The Night They Drove Ole Dixie Down
TTITLE17=Tanya Tucker - Texas When I Die
EXTD=Possom PSBCD 0854\nChurch Street Station
EXTT0=
EXTT1=
EXTT2=
EXTT3=
EXTT4=
EXTT5=
EXTT6=
EXTT7=
EXTT8=
EXTT9=
EXTT10=
EXTT11=
EXTT12=
EXTT13=
EXTT14=
EXTT15=
EXTT16=
EXTT17=
PLAYORDER=
